<?xml version="1.0" encoding="utf-8"?>
<!-- Svg Vector Icons : http://www.onlinewebfonts.com/icon -->
<!DOCTYPE svg PUBLIC "-//W3C//DTD SVG 1.1//EN" "http://www.w3.org/Graphics/SVG/1.1/DTD/svg11.dtd">
<svg version="1.1" xmlns="http://www.w3.org/2000/svg" xmlns:xlink="http://www.w3.org/1999/xlink" x="0px" y="0px" viewBox="0 0 1000 1000" enable-background="new 0 0 1000 1000" xml:space="preserve">
<metadata> Svg Vector Icons : http://www.onlinewebfonts.com/icon </metadata>
<g><path fill="#0088ff" d="M885.5,990c-26.5,0-48-21.9-48-48.9l-0.4-4.6c0-0.7,0.4-1.3,0.4-2C834.6,757,699.7,612.4,528.4,598.3c-9.1,0.9-18.3,1.4-27.6,1.4c-9.3,0-18.5-0.6-27.6-1.4C300,612.6,163.8,760.1,163.8,940.3c0,0,0,0.2,0,0.2h-1l0,0.6c0,27-21.5,48.9-48,48.9c-26.5,0-48-21.9-48-48.9l-0.5-4.6c0-3.6,1.3-6.7,2-10.1c5-173.6,107.9-321.9,254.8-389.1c-68-54-111.9-138-111.9-232.5C211.5,142,341,10,500.8,10C660.5,10,790,142,790,304.9c0,94.8-44,179-112.3,232.9C825.9,606,929.5,756.6,932.3,932.4c0.1,1.4,0.8,2.7,0.8,4.1l0.4,4.6C933.5,968.1,912,990,885.5,990L885.5,990z M692.4,304.2c0-108.4-86.2-196.1-192.4-196.1c-106.3,0-192.4,87.8-192.4,196.1c0,108.3,86.1,196.1,192.4,196.1C606.2,500.3,692.4,412.5,692.4,304.2L692.4,304.2z"/></g>
</svg>